HIERARCHY
ROOT hip
{
  OFFSET 0.00112043 5.09927 -9.65472
  CHANNELS 6 Xposition Yposition Zposition Zrotation Xrotation Yrotation
  JOINT abdomen
  {
    OFFSET 0 -1.186 -1.5018
    CHANNELS 3 Zrotation Xrotation Yrotation
    JOINT abdomen2
    {
      OFFSET 0 9.964 0.2134
      CHANNELS 3 Zrotation Xrotation Yrotation
      JOINT chest
      {
        OFFSET 0 13.134 -3.2573
        CHANNELS 3 Zrotation Xrotation Yrotation
        JOINT neck
        {
          OFFSET 0 20.686 -1.6905
          CHANNELS 3 Zrotation Xrotation Yrotation
          JOINT head
          {
            OFFSET 0 7.238 -0.1237
            CHANNELS 3 Zrotation Xrotation Yrotation
            End Site
            {
              OFFSET 0 0 0
            }
          }
        }
        JOINT lCollar
        {
          OFFSET 1.7069 20.075 5.0056
          CHANNELS 3 Zrotation Xrotation Yrotation
          JOINT lShldr
          {
            OFFSET 13.6458 -0.047 -4.849
            CHANNELS 3 Zrotation Xrotation Yrotation
            JOINT lForeArm
            {
              OFFSET 28.3255 -0.9759 2.2888
              CHANNELS 3 Zrotation Xrotation Yrotation
              JOINT lHand
              {
                OFFSET 22.1583 -0.53 10.8316
                CHANNELS 3 Zrotation Xrotation Yrotation
                JOINT lThumb1
                {
                  OFFSET 0.786 0.112 2.5817
                  CHANNELS 3 Zrotation Xrotation Yrotation
                  JOINT lThumb2
                  {
                    OFFSET 0.3601 -0.878 4.2331
                    CHANNELS 3 Zrotation Xrotation Yrotation
                    JOINT lThumb2_End
                    {
                      OFFSET 1.8127 -1.216 2.2227
                      CHANNELS 3 Zrotation Xrotation Yrotation
                      End Site
                      {
                        OFFSET 0.0181 -0.0122 0.0222
                      }
                    }
                  }
                }
                JOINT lCarpal1
                {
                  OFFSET 0.9571 1.114 1.7695
                  CHANNELS 3 Zrotation Xrotation Yrotation
                  JOINT lIndex1
                  {
                    OFFSET 4.1246 0.487 4.1451
                    CHANNELS 3 Zrotation Xrotation Yrotation
                    JOINT lIndex2
                    {
                      OFFSET 3.4052 -1.454 2.7682
                      CHANNELS 3 Zrotation Xrotation Yrotation
                      JOINT lIndex2_End
                      {
                        OFFSET 1.4531 -1.795 1.2713
                        CHANNELS 3 Zrotation Xrotation Yrotation
                        End Site
                        {
                          OFFSET 0.0145 -0.0179 0.0127
                        }
                      }
                    }
                  }
                  JOINT lMid1
                  {
                    OFFSET 5.6954 0.21 2.1184
                    CHANNELS 3 Zrotation Xrotation Yrotation
                    JOINT lMid2
                    {
                      OFFSET 3.9766 -1.54 2.3863
                      CHANNELS 3 Zrotation Xrotation Yrotation
                      JOINT lMid2_End
                      {
                        OFFSET 1.4042 -1.926 1.125
                        CHANNELS 3 Zrotation Xrotation Yrotation
                        End Site
                        {
                          OFFSET 0.014 -0.0193 0.0113
                        }
                      }
                    }
                  }
                }
                JOINT lCarpal2
                {
                  OFFSET 2.0956 0.66 -0.3894
                  CHANNELS 3 Zrotation Xrotation Yrotation
                  JOINT lRing1
                  {
                    OFFSET 5.0395 -0.09 2.4971
                    CHANNELS 3 Zrotation Xrotation Yrotation
                    JOINT lRing2
                    {
                      OFFSET 3.7921 -1.552 1.4806
                      CHANNELS 3 Zrotation Xrotation Yrotation
                      JOINT lRing2_End
                      {
                        OFFSET 1.4655 -1.808 0.9609
                        CHANNELS 3 Zrotation Xrotation Yrotation
                        End Site
                        {
                          OFFSET 0.0147 -0.0181 0.0096
                        }
                      }
                    }
                  }
                  JOINT lPinky1
                  {
                    OFFSET 4.9141 -1.269 0.3591
                    CHANNELS 3 Zrotation Xrotation Yrotation
                    JOINT lPinky2
                    {
                      OFFSET 3.1477 -1.685 0.8462
                      CHANNELS 3 Zrotation Xrotation Yrotation
                      JOINT lPinky2_End
                      {
                        OFFSET 0.8055 -1.585 0.7955
                        CHANNELS 3 Zrotation Xrotation Yrotation
                        End Site
                        {
                          OFFSET 0.0081 -0.0158 0.008
                        }
                      }
                    }
                  }
                }
              }
            }
          }
        }
        JOINT rCollar
        {
          OFFSET -1.7069 20.075 5.0056
          CHANNELS 3 Zrotation Xrotation Yrotation
          JOINT rShldr
          {
            OFFSET -13.6458 -0.047 -4.849
            CHANNELS 3 Zrotation Xrotation Yrotation
            JOINT rForeArm
            {
              OFFSET -28.3255 -0.9759 2.2888
              CHANNELS 3 Zrotation Xrotation Yrotation
              JOINT rHand
              {
                OFFSET -22.1583 -0.53 10.8316
                CHANNELS 3 Zrotation Xrotation Yrotation
                JOINT rThumb1
                {
                  OFFSET -0.786 0.112 2.5817
                  CHANNELS 3 Zrotation Xrotation Yrotation
                  JOINT rThumb2
                  {
                    OFFSET -0.3601 -0.878 4.2331
                    CHANNELS 3 Zrotation Xrotation Yrotation
                    JOINT rThumb2_End
                    {
                      OFFSET -1.8127 -1.216 2.2227
                      CHANNELS 3 Zrotation Xrotation Yrotation
                      End Site
                      {
                        OFFSET -0.0181 -0.0122 0.0222
                      }
                    }
                  }
                }
                JOINT rCarpal1
                {
                  OFFSET -0.9571 1.114 1.7695
                  CHANNELS 3 Zrotation Xrotation Yrotation
                  JOINT rIndex1
                  {
                    OFFSET -4.1246 0.487 4.1451
                    CHANNELS 3 Zrotation Xrotation Yrotation
                    JOINT rIndex2
                    {
                      OFFSET -3.4052 -1.454 2.7682
                      CHANNELS 3 Zrotation Xrotation Yrotation
                      JOINT rIndex2_End
                      {
                        OFFSET -1.4531 -1.795 1.2713
                        CHANNELS 3 Zrotation Xrotation Yrotation
                        End Site
                        {
                          OFFSET -0.0145 -0.018 0.0127
                        }
                      }
                    }
                  }
                  JOINT rMid1
                  {
                    OFFSET -5.6954 0.21 2.1184
                    CHANNELS 3 Zrotation Xrotation Yrotation
                    JOINT rMid2
                    {
                      OFFSET -3.9766 -1.54 2.3863
                      CHANNELS 3 Zrotation Xrotation Yrotation
                      JOINT rMid2_End
                      {
                        OFFSET -1.4042 -1.926 1.125
                        CHANNELS 3 Zrotation Xrotation Yrotation
                        End Site
                        {
                          OFFSET -0.014 -0.0193 0.0113
                        }
                      }
                    }
                  }
                }
                JOINT rCarpal2
                {
                  OFFSET -2.0956 0.66 -0.3894
                  CHANNELS 3 Zrotation Xrotation Yrotation
                  JOINT rRing1
                  {
                    OFFSET -5.0395 -0.09 2.4971
                    CHANNELS 3 Zrotation Xrotation Yrotation
                    JOINT rRing2
                    {
                      OFFSET -3.7921 -1.552 1.4806
                      CHANNELS 3 Zrotation Xrotation Yrotation
                      JOINT rRing2_End
                      {
                        OFFSET -1.4655 -1.808 0.9609
                        CHANNELS 3 Zrotation Xrotation Yrotation
                        End Site
                        {
                          OFFSET -0.0147 -0.0181 0.0096
                        }
                      }
                    }
                  }
                  JOINT rPinky1
                  {
                    OFFSET -4.9141 -1.269 0.3592
                    CHANNELS 3 Zrotation Xrotation Yrotation
                    JOINT rPinky2
                    {
                      OFFSET -3.1477 -1.685 0.8462
                      CHANNELS 3 Zrotation Xrotation Yrotation
                      JOINT rPinky2_End
                      {
                        OFFSET -0.8055 -1.585 0.7955
                        CHANNELS 3 Zrotation Xrotation Yrotation
                        End Site
                        {
                          OFFSET -0.0081 -0.0158 0.008
                        }
                      }
                    }
                  }
                }
              }
            }
          }
        }
      }
    }
  }
  JOINT lThigh
  {
    OFFSET 8.367 -8.2066 0.5982
    CHANNELS 3 Zrotation Xrotation Yrotation
    JOINT lShin
    {
      OFFSET 2.1923 -43.463 -0.4932
      CHANNELS 3 Zrotation Xrotation Yrotation
      JOINT lFoot
      {
        OFFSET 0.7333 -45.8593 -2.6451
        CHANNELS 3 Zrotation Xrotation Yrotation
        End Site
        {
          OFFSET 2.6618 -4.2699 12.3931
        }
      }
    }
  }
  JOINT rThigh
  {
    OFFSET -8.367 -8.2066 0.5982
    CHANNELS 3 Zrotation Xrotation Yrotation
    JOINT rShin
    {
      OFFSET -2.1923 -43.463 -0.4931
      CHANNELS 3 Zrotation Xrotation Yrotation
      JOINT rFoot
      {
        OFFSET -0.7333 -45.8593 -2.6451
        CHANNELS 3 Zrotation Xrotation Yrotation
        End Site
        {
          OFFSET -2.6618 -4.2699 12.3931
        }
      }
    }
  }
}
MOTION
Frames:	5
Frame Time:	0.0333333
42.5598 -1.74756 42.2127 179.997 58.9977 1.63597e-010 0.545716 7.9367 -0.571465 1.18962 15.8671 -1.23819 1.18962 15.8671 -1.23819 5.22913e-006 13.9933 8.0632e-007 7.84645e-007 0.66221 7.63506e-008 -48.1293 -3.43177 -4.73975 2.01336 55.4945 15.6301 8.95918 35.9272 4.15108 6.53506 5.11921 -5.16214 0 0 -0 0 0 -0 -7.95139e-016 0 -6.36111e-015 1.59028e-015 1.59028e-015 -3.18055e-015 7.95139e-016 0 3.18055e-015 -0 -1.59028e-015 -0 -7.95139e-016 -1.59028e-015 -0 7.95139e-016 0 3.18055e-015 -0 -1.59028e-015 -0 -7.95139e-016 -1.59028e-015 -0 1.59028e-015 1.59028e-015 -3.18055e-015 7.95139e-016 0 3.18055e-015 -0 -1.59028e-015 -0 -7.95139e-016 -1.59028e-015 -0 7.95139e-016 0 3.18055e-015 -0 -1.59028e-015 -0 -7.95139e-016 -1.59028e-015 -0 46.3954 -6.70777 -13.6179 41.3147 -12.7396 65.6225 -98.319 79.5957 133.685 -3.09261 -31.18 10.2114 -1.87805e-006 8.90497e-007 4.34547e-006 -7.63954e-007 -1.72748e-006 2.61798e-006 -4.77083e-015 0 1.59028e-015 1.59028e-015 1.27222e-014 -3.18055e-015 -1.87805e-006 8.90497e-007 4.34547e-006 -7.63954e-007 -1.72748e-006 2.61798e-006 -1.11319e-014 3.18055e-015 -1.59028e-015 -1.87805e-006 8.90497e-007 4.34547e-006 -7.63954e-007 -1.72748e-006 2.61798e-006 -1.11319e-014 3.18055e-015 -1.59028e-015 1.59028e-015 1.27222e-014 -3.18055e-015 -1.87805e-006 8.90497e-007 4.34547e-006 -7.63954e-007 -1.72748e-006 2.61798e-006 -1.11319e-014 3.18055e-015 -1.59028e-015 -1.87805e-006 8.90497e-007 4.34547e-006 -7.63954e-007 -1.72748e-006 2.61798e-006 -1.11319e-014 3.18055e-015 -1.59028e-015 61.7554 -56.35 94.8262 124.237 43.0705 -117.958 25.8736 -0.849045 8.31018 -41.824 -54.9323 -77.7658 -114.492 43.171 129.895 -16.5614 6.62296 -31.2926 
42.5511 -1.74786 42.3231 179.997 58.9977 1.63597e-010 0.546555 7.86169 -0.569409 1.18989 15.7171 -1.23301 1.18989 15.7171 -1.23301 -4.61625e-006 13.9935 4.23924e-006 3.55298e-007 0.618248 -1.62531e-008 -47.8064 -3.47671 -4.25949 2.12896 55.4856 14.7359 8.73897 35.9936 4.57234 6.49134 5.48135 -5.20225 -7.95139e-016 4.77083e-015 3.18055e-015 8.25775e-007 1.91837e-007 8.00456e-008 1.01761e-006 -6.33938e-007 1.41824e-007 -7.95139e-016 3.18055e-015 -0 -3.18055e-015 1.59028e-015 3.18055e-015 8.25775e-007 1.91837e-007 8.00456e-008 1.01761e-006 -6.33938e-007 1.41824e-007 -3.18055e-015 1.59028e-015 3.18055e-015 8.25775e-007 1.91837e-007 8.00456e-008 1.01761e-006 -6.33938e-007 1.41824e-007 -7.95139e-016 3.18055e-015 -0 -3.18055e-015 1.59028e-015 3.18055e-015 8.25775e-007 1.91837e-007 8.00456e-008 1.01761e-006 -6.33938e-007 1.41824e-007 -3.18055e-015 1.59028e-015 3.18055e-015 8.25775e-007 1.91837e-007 8.00456e-008 1.01761e-006 -6.33938e-007 1.41824e-007 46.5093 -6.44338 -13.6309 41.2173 -12.7595 65.2135 -96.9092 80.3565 131.787 -2.77918 -31.0822 10.1758 -3.18055e-015 -6.36111e-015 4.77083e-015 -8.82781e-032 3.18055e-015 1.59028e-015 -1.59028e-015 -6.36111e-015 3.18055e-015 -4.77083e-015 -6.36111e-015 -0 -0 -3.18055e-015 -0 3.18055e-015 -3.18055e-015 1.59028e-015 -4.77083e-015 3.18055e-015 -0 -0 -3.18055e-015 -0 3.18055e-015 -3.18055e-015 1.59028e-015 -4.77083e-015 3.18055e-015 -0 -4.77083e-015 -6.36111e-015 -0 -0 -3.18055e-015 -0 3.18055e-015 -3.18055e-015 1.59028e-015 -4.77083e-015 3.18055e-015 -0 -0 -3.18055e-015 -0 3.18055e-015 -3.18055e-015 1.59028e-015 -4.77083e-015 3.18055e-015 -0 61.3787 -56.2433 94.4675 124.016 43.3528 -117.66 25.895 -0.88148 8.29462 -41.8305 -54.9311 -77.7635 -114.487 43.1722 129.895 -16.5543 6.62426 -31.2891 
42.5425 -1.74811 42.4336 179.997 58.9977 1.63597e-010 0.547394 7.7867 -0.567349 1.19016 15.5671 -1.22784 1.19016 15.5671 -1.22784 1.11508e-005 13.9931 -2.54222e-006 1.41754e-007 0.574269 7.77284e-008 -47.4832 -3.51896 -3.77903 2.24426 55.4756 13.8421 8.51795 36.0585 4.99428 6.44782 5.84352 -5.24189 -8.25755e-007 -1.91749e-007 -8.0596e-008 -8.25755e-007 -1.91749e-007 -8.0596e-008 -1.59028e-015 -3.18055e-015 -3.18055e-015 -7.95139e-016 -1.59028e-015 3.18055e-015 -8.25755e-007 -1.91749e-007 -8.0596e-008 -8.25755e-007 -1.91749e-007 -8.05959e-008 -1.59028e-015 1.59028e-015 -0 -8.25755e-007 -1.91749e-007 -8.0596e-008 -8.25755e-007 -1.91749e-007 -8.05959e-008 -1.59028e-015 1.59028e-015 -0 -7.95139e-016 -1.59028e-015 3.18055e-015 -8.25755e-007 -1.91749e-007 -8.0596e-008 -8.25755e-007 -1.91749e-007 -8.05959e-008 -1.59028e-015 1.59028e-015 -0 -8.25755e-007 -1.91749e-007 -8.0596e-008 -8.25755e-007 -1.91749e-007 -8.05959e-008 -1.59028e-015 1.59028e-015 -0 46.6232 -6.17904 -13.6443 41.1198 -12.7786 64.8045 -95.2609 81.0779 129.644 -2.46605 -30.9846 10.1395 1.59028e-015 6.36111e-015 -1.59028e-015 -6.92886e-007 -1.73335e-006 2.62673e-006 -1.13073e-006 2.62673e-006 1.73335e-006 1.59028e-015 6.36111e-015 -1.59028e-015 -1.59028e-014 6.36111e-015 1.59028e-015 -6.92886e-007 -1.73335e-006 2.62673e-006 -1.13073e-006 2.62673e-006 1.73335e-006 -1.59028e-014 6.36111e-015 1.59028e-015 -6.92886e-007 -1.73335e-006 2.62673e-006 -1.13073e-006 2.62673e-006 1.73335e-006 1.59028e-015 6.36111e-015 -1.59028e-015 -1.59028e-014 6.36111e-015 1.59028e-015 -6.92886e-007 -1.73335e-006 2.62673e-006 -1.13073e-006 2.62673e-006 1.73335e-006 -1.59028e-014 6.36111e-015 1.59028e-015 -6.92886e-007 -1.73335e-006 2.62673e-006 -1.13073e-006 2.62673e-006 1.73335e-006 61.0014 -56.1365 94.1087 123.791 43.6348 -117.357 25.9161 -0.914005 8.27925 -41.837 -54.9299 -77.7611 -114.482 43.1734 129.894 -16.5472 6.62546 -31.2856 
42.5339 -1.74833 42.544 179.997 58.9977 1.63597e-010 0.548229 7.7117 -0.565286 1.19044 15.4171 -1.22266 1.19044 15.4171 -1.22266 5.65178e-005 13.9927 -9.66706e-006 2.40005e-007 0.53032 -7.49872e-007 -47.1597 -3.5585 -3.29841 2.35918 55.4646 12.9489 8.29612 36.122 5.41686 6.40424 6.2059 -5.27909 -8.25739e-007 -1.9165e-007 -8.11362e-008 3.97569e-015 1.59028e-015 6.36111e-015 2.38542e-015 0 -0 8.82781e-032 1.59028e-015 -3.18055e-015 -8.25739e-007 -1.9165e-007 -8.11362e-008 2.38542e-015 -1.59028e-015 3.18055e-015 7.95139e-016 1.59028e-015 -3.18055e-015 -8.25739e-007 -1.9165e-007 -8.11362e-008 2.38542e-015 -1.59028e-015 3.18055e-015 7.95139e-016 1.59028e-015 -3.18055e-015 8.82781e-032 1.59028e-015 -3.18055e-015 -8.25739e-007 -1.9165e-007 -8.11362e-008 2.38542e-015 -1.59028e-015 3.18055e-015 7.95139e-016 1.59028e-015 -3.18055e-015 -8.25739e-007 -1.9165e-007 -8.11362e-008 2.38542e-015 -1.59028e-015 3.18055e-015 7.95139e-016 1.59028e-015 -3.18055e-015 46.7371 -5.91477 -13.6584 41.0222 -12.7971 64.3954 -93.3345 81.7588 127.217 -2.15316 -30.8871 10.1027 6.36111e-015 3.18055e-015 9.54166e-015 7.95139e-015 -3.18055e-015 7.95139e-015 6.36111e-015 1.27222e-014 4.77083e-015 -6.36111e-015 0 -0 9.54166e-015 3.18055e-015 1.11319e-014 1.74931e-014 9.54166e-015 7.95139e-015 9.54166e-015 3.18055e-015 7.95139e-015 9.54166e-015 3.18055e-015 1.11319e-014 1.74931e-014 9.54166e-015 7.95139e-015 9.54166e-015 3.18055e-015 7.95139e-015 -6.36111e-015 0 -0 9.54166e-015 3.18055e-015 1.11319e-014 1.74931e-014 9.54166e-015 7.95139e-015 9.54166e-015 3.18055e-015 7.95139e-015 9.54166e-015 3.18055e-015 1.11319e-014 1.74931e-014 9.54166e-015 7.95139e-015 9.54166e-015 3.18055e-015 7.95139e-015 60.6268 -56.0283 93.7527 123.564 43.9157 -117.053 25.937 -0.946599 8.26411 -41.8434 -54.9286 -77.7587 -114.477 43.1746 129.894 -16.5402 6.62656 -31.2821 
42.5253 -1.7485 42.6544 179.997 58.9977 1.63597e-010 0.549063 7.6367 -0.563219 1.19073 15.2672 -1.21748 1.19072 15.2672 -1.21748 8.78984e-005 13.9929 -1.66817e-005 -2.12404e-007 0.486346 7.12164e-007 -46.8359 -3.59529 -2.81763 2.4737 55.4526 12.0564 8.0735 36.1841 5.84009 6.36098 6.56821 -5.31686 1.59028e-015 -1.59028e-015 6.36111e-015 3.53113e-031 -3.18055e-015 6.36111e-015 7.95139e-016 -3.18055e-015 6.36111e-015 1.59028e-015 -1.59028e-015 3.18055e-015 1.59028e-015 0 3.18055e-015 2.38542e-015 -3.18055e-015 9.54166e-015 -7.95139e-016 -4.77083e-015 6.36111e-015 1.59028e-015 0 3.18055e-015 2.38542e-015 -3.18055e-015 9.54166e-015 -7.95139e-016 -4.77083e-015 6.36111e-015 1.59028e-015 -1.59028e-015 3.18055e-015 1.59028e-015 0 3.18055e-015 2.38542e-015 -3.18055e-015 9.54166e-015 -7.95139e-016 -4.77083e-015 6.36111e-015 1.59028e-015 0 3.18055e-015 2.38542e-015 -3.18055e-015 9.54166e-015 -7.95139e-016 -4.77083e-015 6.36111e-015 46.8511 -5.65051 -13.6729 40.9244 -12.8149 63.9864 -91.0843 82.3984 124.461 -1.84059 -30.7898 10.0653 3.18055e-015 -1.59028e-014 -0 -1.59028e-015 -9.54166e-015 -0 4.41391e-031 -1.59028e-014 1.59028e-015 -1.59028e-015 -6.36111e-015 1.59028e-015 -1.59028e-015 -6.36111e-015 -0 -0 -9.54166e-015 -0 -1.59028e-015 -1.27222e-014 1.59028e-015 -1.59028e-015 -6.36111e-015 -0 -0 -9.54166e-015 -0 -1.59028e-015 -1.27222e-014 1.59028e-015 -1.59028e-015 -6.36111e-015 1.59028e-015 -1.59028e-015 -6.36111e-015 -0 -0 -9.54166e-015 -0 -1.59028e-015 -1.27222e-014 1.59028e-015 -1.59028e-015 -6.36111e-015 -0 -0 -9.54166e-015 -0 -1.59028e-015 -1.27222e-014 1.59028e-015 60.2532 -55.9195 93.398 123.334 44.1958 -116.744 25.9575 -0.979209 8.24908 -41.8498 -54.9273 -77.7562 -114.472 43.1758 129.893 -16.5333 6.62763 -31.2787 
